# Blender v3.0.0 OBJ File: 'test.blend'
# www.blender.org
o box.003_box.002
v -43.954910 -24.862696 11.476953
v -43.954922 -24.862696 -0.998051
v -43.954906 24.870777 11.476953
v -43.954918 24.870777 -0.998051
v -42.919960 24.870777 11.476953
v -42.919971 24.870777 -0.998051
v -42.919975 -24.862696 -0.998051
v -42.919964 -24.862696 11.476953
v 43.376282 24.870777 11.476953
v 42.341335 -24.862696 11.476953
v 42.341324 -24.862696 -0.998051
v 42.341328 24.870777 -0.998051
v 43.376270 24.870777 -0.998051
v 43.376266 -24.862696 -0.998051
v 42.341339 24.870777 11.476953
v 43.376278 -24.862696 11.476953
v 43.325890 -25.036289 -0.983984
v 43.325890 -25.036299 11.491018
v 43.325890 -24.001345 -0.983984
v -43.821537 -24.001341 -0.983984
v -43.821537 -25.036283 -0.983984
v -43.821537 -24.001350 11.491018
v 43.325890 -24.001356 11.491018
v -43.821537 -25.036295 11.491018
v 43.325890 23.896450 11.491018
v -43.821537 23.896456 11.491018
v 43.325890 24.931402 -0.983984
v -43.821537 24.931398 11.491018
v -43.821537 23.896465 -0.983984
v -43.821537 24.931408 -0.983984
v 43.325890 23.896460 -0.983984
v 43.325890 24.931393 11.491018
vt -4.734296 -24.728680
vt 1.508868 -24.728680
vt 1.508868 18.884602
vt -4.734296 18.884602
vt 9.863714 6.230257
vt 9.863714 -0.012908
vt 10.381292 -0.012908
vt 10.381292 6.230257
vt 7.273871 -0.012908
vt 7.273871 -24.902555
vt 13.517035 -24.902555
vt 13.517035 -0.012908
vt 20.755938 18.884602
vt 20.755938 -24.728680
vt 21.274492 -24.728680
vt 21.274492 18.884602
vt 21.831488 -0.012908
vt 21.831488 -24.902555
vt 22.350042 -24.902555
vt 22.350042 -0.012908
vt 20.238359 18.884602
vt 20.238359 -24.728680
vt 20.755938 -24.728680
vt 20.755938 18.884602
vt 9.305742 0.160969
vt 9.305742 6.404133
vt 8.788164 6.404133
vt 8.788164 0.160969
vt 7.491217 6.404133
vt 7.491217 0.160969
vt 8.009771 0.160969
vt 8.009771 6.404133
vt 22.567389 0.160969
vt 22.567389 -24.728680
vt 23.084967 -24.728680
vt 23.084967 0.160969
vt 8.527349 0.160969
vt 8.527349 6.404133
vt 8.008795 6.404133
vt 8.008795 0.160969
vt 21.531256 18.884602
vt 21.531256 -24.728680
vt 22.049810 -24.728680
vt 22.049810 18.884602
vt 24.121099 -24.728680
vt 24.121099 0.160969
vt 23.603521 0.160969
vt 23.603521 -24.728680
vt 13.734381 0.160969
vt 13.734381 -24.728680
vt 19.977545 -24.728680
vt 19.977545 0.160969
vt 9.863714 -0.012908
vt 9.863714 6.230257
vt 9.345160 6.230257
vt 9.345160 -0.012908
vt 9.305742 6.404133
vt 9.305742 0.160969
vt 9.823320 0.160969
vt 9.823320 6.404133
vt 11.117193 0.160969
vt 11.117193 6.404133
vt 10.598639 6.404133
vt 10.598639 0.160969
vt 23.386175 -24.902555
vt 23.386175 -0.012908
vt 22.867620 -0.012908
vt 22.867620 -24.902555
vt 11.117193 6.404133
vt 11.117193 0.160969
vt 11.634771 0.160969
vt 11.634771 6.404133
vt 21.013678 18.884602
vt 21.013678 -24.728680
vt 21.531256 -24.728680
vt 21.531256 18.884602
vt -17.481440 -24.728680
vt -11.238276 -24.728680
vt -11.238276 18.884602
vt -17.481440 18.884602
vt -17.220625 -24.728680
vt -23.463789 -24.728680
vt -23.463789 18.884602
vt -17.220625 18.884602
vt 1.030707 -24.902555
vt 1.030707 -0.012908
vt 7.273871 -0.012908
vt 7.273871 -24.902555
vt -4.995111 -24.728680
vt -11.238276 -24.728680
vt -11.238276 18.884602
vt -4.995111 18.884602
vt 7.491217 25.050617
vt 1.248052 25.050617
vt 1.248052 0.160969
vt 7.491217 0.160969
vn 0.0000 1.0000 0.0000
vn 1.0000 0.0000 -0.0000
vn -0.0000 0.0000 -1.0000
vn 0.0000 0.0000 1.0000
vn -1.0000 0.0000 0.0000
vn 0.0000 -1.0000 -0.0000
s off
f 23/1/1 19/2/1 20/3/1 22/4/1
f 5/5/1 6/6/1 4/7/1 3/8/1
f 5/9/2 8/10/2 7/11/2 6/12/2
f 17/13/3 21/14/3 20/15/3 19/16/3
f 6/17/3 7/18/3 2/19/3 4/20/3
f 24/21/4 18/22/4 23/23/4 22/24/4
f 21/25/5 24/26/5 22/27/5 20/28/5
f 9/29/1 13/30/1 12/31/1 15/32/1
f 13/33/3 14/34/3 11/35/3 12/36/3
f 14/37/6 16/38/6 10/39/6 11/40/6
f 31/41/3 29/42/3 30/43/3 27/44/3
f 16/45/4 9/46/4 15/47/4 10/48/4
f 9/49/2 16/50/2 14/51/2 13/52/2
f 7/53/6 8/54/6 1/55/6 2/56/6
f 18/57/2 17/58/2 19/59/2 23/60/2
f 29/61/5 26/62/5 28/63/5 30/64/5
f 8/65/4 5/66/4 3/67/4 1/68/4
f 25/69/2 31/70/2 27/71/2 32/72/2
f 26/73/4 25/74/4 32/75/4 28/76/4
f 32/77/1 27/78/1 30/79/1 28/80/1
f 17/81/6 18/82/6 24/83/6 21/84/6
f 1/85/5 3/86/5 4/87/5 2/88/5
f 31/89/6 25/90/6 26/91/6 29/92/6
f 11/93/5 10/94/5 15/95/5 12/96/5
